<svg width="32" height="28" viewBox="0 0 32 28" fill="none" xmlns="http://www.w3.org/2000/svg">
<path d="M32 22.3984V0H0V22.3984H11.2969V25.2031C11.2969 25.72 10.8728 26.1406 10.3516 26.1406H8.46875V28H23.5312V26.1406H21.6484C21.1272 26.1406 20.7031 25.72 20.7031 25.2031V22.3984H32ZM1.875 1.85944H30.125V16.8046H1.875V1.85944ZM13.0084 26.1406C13.1139 25.8473 13.1719 25.5318 13.1719 25.2031V22.3984H18.8281V25.2031C18.8281 25.5318 18.8861 25.8473 18.9916 26.1406H13.0084ZM1.875 20.539V18.6641H30.125V20.539H1.875Z" fill="#192A32"/>
<path d="M7 9L8.4201 7.59169L9.84019 9L8.4201 10.4083L7 9Z" fill="#192A32"/>
<path d="M22 9L23.4201 7.59169L24.8402 9L23.4201 10.4083L22 9Z" fill="#192A32"/>
<path d="M15.4998 4C12.5674 5.86161 10.987 7.64711 11.0001 9.49042C11.0001 11.2224 12.3287 12.6316 13.9619 12.6316C14.1721 12.6316 14.3799 12.6076 14.5821 12.5616V14H16.4175V12.5616C16.6197 12.6077 16.8274 12.6317 17.0377 12.6317C18.6709 12.6317 19.9995 11.2225 19.9995 9.49048C20.0346 7.51078 18.138 5.68181 15.4998 4ZM17.0377 10.685C16.4343 10.759 15.8473 9.84489 15.4998 9.44019C15.1001 9.88357 14.658 10.6998 13.9619 10.685C13.3408 10.685 12.8355 10.1491 12.8355 9.49042C12.8355 8.44405 14.1893 7.23339 15.4998 6.3068C16.8103 7.23339 18.1641 8.44405 18.1641 9.49042C18.1641 10.1491 17.6588 10.685 17.0377 10.685Z" fill="#192A32"/>
</svg>
