<svg width="32" height="28" viewBox="0 0 32 28" fill="none" xmlns="http://www.w3.org/2000/svg">
<path d="M7 18L8.4201 16.5917L9.84019 18L8.4201 19.4083L7 18Z" fill="#192A32"/>
<path d="M22 18L23.4201 16.5917L24.8402 18L23.4201 19.4083L22 18Z" fill="#192A32"/>
<path d="M32 6.59325V0H0V6.59325H3.76562V13.1937L2.10713 14.1336H2.10719C0.807438 14.87 0 16.2498 0 17.7344C0 19.2189 0.807438 20.5987 2.10713 21.3352L12.0173 26.9511C13.2281 27.6373 14.6053 28 16 28C17.3947 28 18.7719 27.6373 19.9827 26.9511L29.8929 21.3352C31.1926 20.5987 32 19.2189 32 17.7344C32 16.2498 31.1926 14.87 29.8929 14.1336L28.2344 13.1937V6.59325H32ZM1.875 1.85944H30.125V4.73381H1.875V1.85944ZM19.9827 8.51764C18.7719 7.83145 17.3947 7.46873 16 7.46873C14.6053 7.46873 13.2281 7.83145 12.0173 8.51764L9.40625 9.99725V6.59325H22.5938V9.99725L19.9827 8.51764ZM5.64062 6.59325H7.53125V11.0598L5.64062 12.1312V6.59325ZM30.125 17.7344C30.125 18.5533 29.6796 19.3144 28.9626 19.7207L19.0524 25.3367C18.1244 25.8625 17.0689 26.1406 16 26.1406C14.9311 26.1406 13.8756 25.8626 12.9476 25.3367L3.03737 19.7207C2.32037 19.3144 1.875 18.5533 1.875 17.7344C1.875 16.9154 2.32037 16.1543 3.03737 15.748L12.9476 10.1321C13.8756 9.60622 14.9311 9.32817 16 9.32817C17.0689 9.32817 18.1244 9.60615 19.0524 10.1321L28.9626 15.748C29.6796 16.1543 30.125 16.9154 30.125 17.7344ZM26.3594 12.1312L24.4688 11.0598V6.59325H26.3594V12.1312Z" fill="#192A32"/>
<path d="M15.4998 13C12.5674 14.8616 10.987 16.6471 11.0001 18.4905C11.0001 20.2225 12.3287 21.6317 13.9619 21.6317C14.1721 21.6317 14.3799 21.6076 14.5821 21.5616V23H16.4175V21.5617C16.6197 21.6077 16.8274 21.6317 17.0377 21.6317C18.6709 21.6317 19.9995 20.2226 19.9995 18.4905C20.0346 16.5108 18.138 14.6818 15.4998 13ZM17.0377 19.685C16.4343 19.7591 15.8472 18.8449 15.4997 18.4402C15.1001 18.8836 14.658 19.6999 13.9618 19.685C13.3407 19.685 12.8354 19.1491 12.8354 18.4905C12.8354 17.4441 14.1893 16.2334 15.4997 15.3068C16.8102 16.2334 18.1641 17.4441 18.1641 18.4905C18.1641 19.1491 17.6588 19.685 17.0377 19.685Z" fill="#192A32"/>
</svg>
