<svg width="29" height="32" viewBox="0 0 29 32" fill="none" xmlns="http://www.w3.org/2000/svg">
<path d="M9 27H11V29H9V27Z" fill="#192A32"/>
<path d="M27.2958 24.2079C26.9108 22.4475 25.5793 21.047 23.821 20.5529L18.7202 19.1194L18.2923 16.9906C19.6734 15.8365 20.5588 14.0679 20.5588 12.0881V8.48725C21.1865 8.06121 22.012 7.15999 22.012 5.36349C22.083 2.60016 19.5657 -0.0646158 16.6931 0.00119422C15.7952 0.00119422 14.7968 0.196124 13.7397 0.402429C11.4733 0.908535 9.24165 1.15321 7.36264 0.0438176C6.17764 3.03521 6.52553 5.84504 8.44109 8.26982V12.0881C8.44109 14.0678 9.32662 15.8365 10.7077 16.9906L10.2797 19.1195L5.17883 20.5529C3.42053 21.0471 2.08906 22.4476 1.70411 24.208L0 32H29L27.2958 24.2079ZM14.5 27.0887C14.2542 26.6011 13.9631 26.1353 13.6294 25.6992L13.0127 24.8935L14.5 23.0012L15.9873 24.8935L15.3706 25.6992C15.0368 26.1353 14.7458 26.6011 14.5 27.0887ZM12.1091 26.8278C12.8451 27.7895 13.3176 28.9349 13.4821 30.1251H7.6095V21.8196L8.15831 21.6654L12.1091 26.8278ZM16.8909 26.8278L20.8417 21.6654L21.3905 21.8196V30.1251H15.5179C15.6823 28.9349 16.1549 27.7895 16.8909 26.8278ZM18.8796 21.1141L17.1749 23.3415L15.9737 21.8131L17.9854 20.8628L18.8796 21.1141ZM9.84319 6.99318C8.83994 5.70398 8.40511 4.08804 8.62843 2.54435C10.4303 2.95977 12.3668 2.58191 14.11 2.24161C15.0727 2.05368 15.9821 1.87612 16.6932 1.87612C18.5443 1.87612 20.1082 3.47313 20.1082 5.36349C20.1082 5.65023 20.0762 5.88879 20.0253 6.08772C19.3585 4.97182 17.9568 4.31685 16.5693 4.42603C15.3025 6.00522 13.3123 7.00393 11.2429 6.99312H9.84319V6.99318ZM10.3449 8.86811H11.2428C13.5537 8.86811 15.761 7.95352 17.3744 6.34302C18.1072 6.51045 18.655 7.15874 18.655 7.93065V12.0882C18.655 14.5233 16.791 16.5043 14.4999 16.5043C12.2088 16.5043 10.3448 14.5233 10.3448 12.0882V8.86811H10.3449ZM14.5 18.3793C15.2214 18.3793 15.9135 18.2474 16.5557 18.0062L16.8223 19.3328L14.5 20.4299L12.1777 19.3328L12.4444 18.0062C13.0865 18.2474 13.7786 18.3793 14.5 18.3793ZM11.0146 20.8628L13.0263 21.8131L11.825 23.3415L10.1203 21.1141L11.0146 20.8628ZM3.56528 24.6027C3.80193 23.5206 4.62044 22.6597 5.70131 22.3559L5.70568 22.3546V30.1251H2.3575L3.56528 24.6027ZM23.2943 30.1251V22.3546L23.2986 22.3559C24.3795 22.6596 25.198 23.5206 25.4347 24.6027L26.6424 30.1251H23.2943Z" fill="#192A32"/>
</svg>
