<svg width="32" height="23" viewBox="0 0 32 23" fill="none" xmlns="http://www.w3.org/2000/svg">
<path d="M4 17H10V19H4V17Z" fill="#192A32"/>
<path d="M11 17H13V19H11V17Z" fill="#192A32"/>
<path d="M15 17H21V19H15V17Z" fill="#192A32"/>
<path d="M23 17H25V19H23V17Z" fill="#192A32"/>
<path d="M32 0H3.76562V3.81939H0V23H28.2344V19.1806H32V0ZM5.64062 1.90177H30.125V9.64007H28.2344V3.81939H5.64062V1.90177ZM28.2344 11.5418H30.125V13.4595H28.2344V11.5418ZM26.3594 21.0982H1.875V5.72116H26.3594V21.0982ZM28.2344 17.2788V15.3612H30.125V17.2788H28.2344Z" fill="#192A32"/>
<path d="M12 8H4V14H12V8ZM10.0062 12.0055H5.99377V9.99446H10.0062V12.0055Z" fill="#192A32"/>
</svg>
