<svg width="19" height="31" viewBox="0 0 19 31" fill="none" xmlns="http://www.w3.org/2000/svg">
<path d="M15.5 1H3.5C2.83797 1.00353 2.20399 1.28756 1.73586 1.79037C1.26773 2.29318 1.00329 2.97412 1 3.68518V27.3148C1.00329 28.0259 1.26773 28.7068 1.73586 29.2096C2.20399 29.7124 2.83797 29.9965 3.5 30H15.5C16.162 29.9965 16.796 29.7124 17.2641 29.2096C17.7323 28.7068 17.9967 28.0259 18 27.3148V3.68518C17.9967 2.97412 17.7323 2.29318 17.2641 1.79037C16.796 1.28756 16.162 1.00353 15.5 1ZM2 6.37037H17V24.6296H2V6.37037ZM3.5 2.07407H15.5C15.8978 2.07407 16.2794 2.24382 16.5607 2.54596C16.842 2.8481 17 3.25789 17 3.68518V5.2963H2V3.68518C2 3.25789 2.15804 2.8481 2.43934 2.54596C2.72064 2.24382 3.10218 2.07407 3.5 2.07407ZM15.5 28.9259H3.5C3.10218 28.9259 2.72064 28.7562 2.43934 28.454C2.15804 28.1519 2 27.7421 2 27.3148V25.7037H17V27.3148C17 27.7421 16.842 28.1519 16.5607 28.454C16.2794 28.7562 15.8978 28.9259 15.5 28.9259Z" fill="#192A32" stroke="#192A32"/>
</svg>
